<?xml version="1.0" encoding="utf-8" standalone="no"?>
<!DOCTYPE svg PUBLIC "-//W3C//DTD SVG 1.1//EN"
  "http://www.w3.org/Graphics/SVG/1.1/DTD/svg11.dtd">
<!-- Created with matplotlib (https://matplotlib.org/) -->
<svg height="300.690125pt" version="1.1" viewBox="0 0 388.3825 300.690125" width="388.3825pt" xmlns="http://www.w3.org/2000/svg" xmlns:xlink="http://www.w3.org/1999/xlink">
 <defs>
  <style type="text/css">
*{stroke-linecap:butt;stroke-linejoin:round;}
  </style>
 </defs>
 <g id="figure_1">
  <g id="patch_1">
   <path d="M 0 300.690125 
L 388.3825 300.690125 
L 388.3825 0 
L 0 0 
z
" style="fill:#ffffff;"/>
  </g>
  <g id="axes_1">
   <g id="patch_2">
    <path d="M 20.5625 276.812 
L 377.6825 276.812 
L 377.6825 10.7 
L 20.5625 10.7 
z
" style="fill:#ffffff;"/>
   </g>
   <g id="matplotlib.axis_1">
    <g id="xtick_1">
     <g id="line2d_1">
      <defs>
       <path d="M 0 0 
L 0 3.5 
" id="mac988780eb" style="stroke:#000000;stroke-width:0.8;"/>
      </defs>
      <g>
       <use style="stroke:#000000;stroke-width:0.8;" x="36.795227" xlink:href="#mac988780eb" y="276.812"/>
      </g>
     </g>
     <g id="text_1">
      <!-- 0.0 -->
      <defs>
       <path d="M 31.78125 66.40625 
Q 24.171875 66.40625 20.328125 58.90625 
Q 16.5 51.421875 16.5 36.375 
Q 16.5 21.390625 20.328125 13.890625 
Q 24.171875 6.390625 31.78125 6.390625 
Q 39.453125 6.390625 43.28125 13.890625 
Q 47.125 21.390625 47.125 36.375 
Q 47.125 51.421875 43.28125 58.90625 
Q 39.453125 66.40625 31.78125 66.40625 
z
M 31.78125 74.21875 
Q 44.046875 74.21875 50.515625 64.515625 
Q 56.984375 54.828125 56.984375 36.375 
Q 56.984375 17.96875 50.515625 8.265625 
Q 44.046875 -1.421875 31.78125 -1.421875 
Q 19.53125 -1.421875 13.0625 8.265625 
Q 6.59375 17.96875 6.59375 36.375 
Q 6.59375 54.828125 13.0625 64.515625 
Q 19.53125 74.21875 31.78125 74.21875 
z
" id="DejaVuSans-48"/>
       <path d="M 10.6875 12.40625 
L 21 12.40625 
L 21 0 
L 10.6875 0 
z
" id="DejaVuSans-46"/>
      </defs>
      <g transform="translate(28.843665 291.410437)scale(0.1 -0.1)">
       <use xlink:href="#DejaVuSans-48"/>
       <use x="63.623047" xlink:href="#DejaVuSans-46"/>
       <use x="95.410156" xlink:href="#DejaVuSans-48"/>
      </g>
     </g>
    </g>
    <g id="xtick_2">
     <g id="line2d_2">
      <g>
       <use style="stroke:#000000;stroke-width:0.8;" x="101.726136" xlink:href="#mac988780eb" y="276.812"/>
      </g>
     </g>
     <g id="text_2">
      <!-- 0.2 -->
      <defs>
       <path d="M 19.1875 8.296875 
L 53.609375 8.296875 
L 53.609375 0 
L 7.328125 0 
L 7.328125 8.296875 
Q 12.9375 14.109375 22.625 23.890625 
Q 32.328125 33.6875 34.8125 36.53125 
Q 39.546875 41.84375 41.421875 45.53125 
Q 43.3125 49.21875 43.3125 52.78125 
Q 43.3125 58.59375 39.234375 62.25 
Q 35.15625 65.921875 28.609375 65.921875 
Q 23.96875 65.921875 18.8125 64.3125 
Q 13.671875 62.703125 7.8125 59.421875 
L 7.8125 69.390625 
Q 13.765625 71.78125 18.9375 73 
Q 24.125 74.21875 28.421875 74.21875 
Q 39.75 74.21875 46.484375 68.546875 
Q 53.21875 62.890625 53.21875 53.421875 
Q 53.21875 48.921875 51.53125 44.890625 
Q 49.859375 40.875 45.40625 35.40625 
Q 44.1875 33.984375 37.640625 27.21875 
Q 31.109375 20.453125 19.1875 8.296875 
z
" id="DejaVuSans-50"/>
      </defs>
      <g transform="translate(93.774574 291.410437)scale(0.1 -0.1)">
       <use xlink:href="#DejaVuSans-48"/>
       <use x="63.623047" xlink:href="#DejaVuSans-46"/>
       <use x="95.410156" xlink:href="#DejaVuSans-50"/>
      </g>
     </g>
    </g>
    <g id="xtick_3">
     <g id="line2d_3">
      <g>
       <use style="stroke:#000000;stroke-width:0.8;" x="166.657045" xlink:href="#mac988780eb" y="276.812"/>
      </g>
     </g>
     <g id="text_3">
      <!-- 0.4 -->
      <defs>
       <path d="M 37.796875 64.3125 
L 12.890625 25.390625 
L 37.796875 25.390625 
z
M 35.203125 72.90625 
L 47.609375 72.90625 
L 47.609375 25.390625 
L 58.015625 25.390625 
L 58.015625 17.1875 
L 47.609375 17.1875 
L 47.609375 0 
L 37.796875 0 
L 37.796875 17.1875 
L 4.890625 17.1875 
L 4.890625 26.703125 
z
" id="DejaVuSans-52"/>
      </defs>
      <g transform="translate(158.705483 291.410437)scale(0.1 -0.1)">
       <use xlink:href="#DejaVuSans-48"/>
       <use x="63.623047" xlink:href="#DejaVuSans-46"/>
       <use x="95.410156" xlink:href="#DejaVuSans-52"/>
      </g>
     </g>
    </g>
    <g id="xtick_4">
     <g id="line2d_4">
      <g>
       <use style="stroke:#000000;stroke-width:0.8;" x="231.587955" xlink:href="#mac988780eb" y="276.812"/>
      </g>
     </g>
     <g id="text_4">
      <!-- 0.6 -->
      <defs>
       <path d="M 33.015625 40.375 
Q 26.375 40.375 22.484375 35.828125 
Q 18.609375 31.296875 18.609375 23.390625 
Q 18.609375 15.53125 22.484375 10.953125 
Q 26.375 6.390625 33.015625 6.390625 
Q 39.65625 6.390625 43.53125 10.953125 
Q 47.40625 15.53125 47.40625 23.390625 
Q 47.40625 31.296875 43.53125 35.828125 
Q 39.65625 40.375 33.015625 40.375 
z
M 52.59375 71.296875 
L 52.59375 62.3125 
Q 48.875 64.0625 45.09375 64.984375 
Q 41.3125 65.921875 37.59375 65.921875 
Q 27.828125 65.921875 22.671875 59.328125 
Q 17.53125 52.734375 16.796875 39.40625 
Q 19.671875 43.65625 24.015625 45.921875 
Q 28.375 48.1875 33.59375 48.1875 
Q 44.578125 48.1875 50.953125 41.515625 
Q 57.328125 34.859375 57.328125 23.390625 
Q 57.328125 12.15625 50.6875 5.359375 
Q 44.046875 -1.421875 33.015625 -1.421875 
Q 20.359375 -1.421875 13.671875 8.265625 
Q 6.984375 17.96875 6.984375 36.375 
Q 6.984375 53.65625 15.1875 63.9375 
Q 23.390625 74.21875 37.203125 74.21875 
Q 40.921875 74.21875 44.703125 73.484375 
Q 48.484375 72.75 52.59375 71.296875 
z
" id="DejaVuSans-54"/>
      </defs>
      <g transform="translate(223.636392 291.410437)scale(0.1 -0.1)">
       <use xlink:href="#DejaVuSans-48"/>
       <use x="63.623047" xlink:href="#DejaVuSans-46"/>
       <use x="95.410156" xlink:href="#DejaVuSans-54"/>
      </g>
     </g>
    </g>
    <g id="xtick_5">
     <g id="line2d_5">
      <g>
       <use style="stroke:#000000;stroke-width:0.8;" x="296.518864" xlink:href="#mac988780eb" y="276.812"/>
      </g>
     </g>
     <g id="text_5">
      <!-- 0.8 -->
      <defs>
       <path d="M 31.78125 34.625 
Q 24.75 34.625 20.71875 30.859375 
Q 16.703125 27.09375 16.703125 20.515625 
Q 16.703125 13.921875 20.71875 10.15625 
Q 24.75 6.390625 31.78125 6.390625 
Q 38.8125 6.390625 42.859375 10.171875 
Q 46.921875 13.96875 46.921875 20.515625 
Q 46.921875 27.09375 42.890625 30.859375 
Q 38.875 34.625 31.78125 34.625 
z
M 21.921875 38.8125 
Q 15.578125 40.375 12.03125 44.71875 
Q 8.5 49.078125 8.5 55.328125 
Q 8.5 64.0625 14.71875 69.140625 
Q 20.953125 74.21875 31.78125 74.21875 
Q 42.671875 74.21875 48.875 69.140625 
Q 55.078125 64.0625 55.078125 55.328125 
Q 55.078125 49.078125 51.53125 44.71875 
Q 48 40.375 41.703125 38.8125 
Q 48.828125 37.15625 52.796875 32.3125 
Q 56.78125 27.484375 56.78125 20.515625 
Q 56.78125 9.90625 50.3125 4.234375 
Q 43.84375 -1.421875 31.78125 -1.421875 
Q 19.734375 -1.421875 13.25 4.234375 
Q 6.78125 9.90625 6.78125 20.515625 
Q 6.78125 27.484375 10.78125 32.3125 
Q 14.796875 37.15625 21.921875 38.8125 
z
M 18.3125 54.390625 
Q 18.3125 48.734375 21.84375 45.5625 
Q 25.390625 42.390625 31.78125 42.390625 
Q 38.140625 42.390625 41.71875 45.5625 
Q 45.3125 48.734375 45.3125 54.390625 
Q 45.3125 60.0625 41.71875 63.234375 
Q 38.140625 66.40625 31.78125 66.40625 
Q 25.390625 66.40625 21.84375 63.234375 
Q 18.3125 60.0625 18.3125 54.390625 
z
" id="DejaVuSans-56"/>
      </defs>
      <g transform="translate(288.567301 291.410437)scale(0.1 -0.1)">
       <use xlink:href="#DejaVuSans-48"/>
       <use x="63.623047" xlink:href="#DejaVuSans-46"/>
       <use x="95.410156" xlink:href="#DejaVuSans-56"/>
      </g>
     </g>
    </g>
    <g id="xtick_6">
     <g id="line2d_6">
      <g>
       <use style="stroke:#000000;stroke-width:0.8;" x="361.449773" xlink:href="#mac988780eb" y="276.812"/>
      </g>
     </g>
     <g id="text_6">
      <!-- 1.0 -->
      <defs>
       <path d="M 12.40625 8.296875 
L 28.515625 8.296875 
L 28.515625 63.921875 
L 10.984375 60.40625 
L 10.984375 69.390625 
L 28.421875 72.90625 
L 38.28125 72.90625 
L 38.28125 8.296875 
L 54.390625 8.296875 
L 54.390625 0 
L 12.40625 0 
z
" id="DejaVuSans-49"/>
      </defs>
      <g transform="translate(353.49821 291.410437)scale(0.1 -0.1)">
       <use xlink:href="#DejaVuSans-49"/>
       <use x="63.623047" xlink:href="#DejaVuSans-46"/>
       <use x="95.410156" xlink:href="#DejaVuSans-48"/>
      </g>
     </g>
    </g>
   </g>
   <g id="matplotlib.axis_2">
    <g id="ytick_1">
     <g id="line2d_7">
      <defs>
       <path d="M 0 0 
L -3.5 0 
" id="m1215313e4f" style="stroke:#000000;stroke-width:0.8;"/>
      </defs>
      <g>
       <use style="stroke:#000000;stroke-width:0.8;" x="20.5625" xlink:href="#m1215313e4f" y="273.705917"/>
      </g>
     </g>
     <g id="text_7">
      <!-- 0 -->
      <g transform="translate(7.2 277.505135)scale(0.1 -0.1)">
       <use xlink:href="#DejaVuSans-48"/>
      </g>
     </g>
    </g>
    <g id="ytick_2">
     <g id="line2d_8">
      <g>
       <use style="stroke:#000000;stroke-width:0.8;" x="20.5625" xlink:href="#m1215313e4f" y="227.295934"/>
      </g>
     </g>
     <g id="text_8">
      <!-- 1 -->
      <g transform="translate(7.2 231.095153)scale(0.1 -0.1)">
       <use xlink:href="#DejaVuSans-49"/>
      </g>
     </g>
    </g>
    <g id="ytick_3">
     <g id="line2d_9">
      <g>
       <use style="stroke:#000000;stroke-width:0.8;" x="20.5625" xlink:href="#m1215313e4f" y="180.885951"/>
      </g>
     </g>
     <g id="text_9">
      <!-- 2 -->
      <g transform="translate(7.2 184.68517)scale(0.1 -0.1)">
       <use xlink:href="#DejaVuSans-50"/>
      </g>
     </g>
    </g>
    <g id="ytick_4">
     <g id="line2d_10">
      <g>
       <use style="stroke:#000000;stroke-width:0.8;" x="20.5625" xlink:href="#m1215313e4f" y="134.475968"/>
      </g>
     </g>
     <g id="text_10">
      <!-- 3 -->
      <defs>
       <path d="M 40.578125 39.3125 
Q 47.65625 37.796875 51.625 33 
Q 55.609375 28.21875 55.609375 21.1875 
Q 55.609375 10.40625 48.1875 4.484375 
Q 40.765625 -1.421875 27.09375 -1.421875 
Q 22.515625 -1.421875 17.65625 -0.515625 
Q 12.796875 0.390625 7.625 2.203125 
L 7.625 11.71875 
Q 11.71875 9.328125 16.59375 8.109375 
Q 21.484375 6.890625 26.8125 6.890625 
Q 36.078125 6.890625 40.9375 10.546875 
Q 45.796875 14.203125 45.796875 21.1875 
Q 45.796875 27.640625 41.28125 31.265625 
Q 36.765625 34.90625 28.71875 34.90625 
L 20.21875 34.90625 
L 20.21875 43.015625 
L 29.109375 43.015625 
Q 36.375 43.015625 40.234375 45.921875 
Q 44.09375 48.828125 44.09375 54.296875 
Q 44.09375 59.90625 40.109375 62.90625 
Q 36.140625 65.921875 28.71875 65.921875 
Q 24.65625 65.921875 20.015625 65.03125 
Q 15.375 64.15625 9.8125 62.3125 
L 9.8125 71.09375 
Q 15.4375 72.65625 20.34375 73.4375 
Q 25.25 74.21875 29.59375 74.21875 
Q 40.828125 74.21875 47.359375 69.109375 
Q 53.90625 64.015625 53.90625 55.328125 
Q 53.90625 49.265625 50.4375 45.09375 
Q 46.96875 40.921875 40.578125 39.3125 
z
" id="DejaVuSans-51"/>
      </defs>
      <g transform="translate(7.2 138.275187)scale(0.1 -0.1)">
       <use xlink:href="#DejaVuSans-51"/>
      </g>
     </g>
    </g>
    <g id="ytick_5">
     <g id="line2d_11">
      <g>
       <use style="stroke:#000000;stroke-width:0.8;" x="20.5625" xlink:href="#m1215313e4f" y="88.065985"/>
      </g>
     </g>
     <g id="text_11">
      <!-- 4 -->
      <g transform="translate(7.2 91.865204)scale(0.1 -0.1)">
       <use xlink:href="#DejaVuSans-52"/>
      </g>
     </g>
    </g>
    <g id="ytick_6">
     <g id="line2d_12">
      <g>
       <use style="stroke:#000000;stroke-width:0.8;" x="20.5625" xlink:href="#m1215313e4f" y="41.656003"/>
      </g>
     </g>
     <g id="text_12">
      <!-- 5 -->
      <defs>
       <path d="M 10.796875 72.90625 
L 49.515625 72.90625 
L 49.515625 64.59375 
L 19.828125 64.59375 
L 19.828125 46.734375 
Q 21.96875 47.46875 24.109375 47.828125 
Q 26.265625 48.1875 28.421875 48.1875 
Q 40.625 48.1875 47.75 41.5 
Q 54.890625 34.8125 54.890625 23.390625 
Q 54.890625 11.625 47.5625 5.09375 
Q 40.234375 -1.421875 26.90625 -1.421875 
Q 22.3125 -1.421875 17.546875 -0.640625 
Q 12.796875 0.140625 7.71875 1.703125 
L 7.71875 11.625 
Q 12.109375 9.234375 16.796875 8.0625 
Q 21.484375 6.890625 26.703125 6.890625 
Q 35.15625 6.890625 40.078125 11.328125 
Q 45.015625 15.765625 45.015625 23.390625 
Q 45.015625 31 40.078125 35.4375 
Q 35.15625 39.890625 26.703125 39.890625 
Q 22.75 39.890625 18.8125 39.015625 
Q 14.890625 38.140625 10.796875 36.28125 
z
" id="DejaVuSans-53"/>
      </defs>
      <g transform="translate(7.2 45.455221)scale(0.1 -0.1)">
       <use xlink:href="#DejaVuSans-53"/>
      </g>
     </g>
    </g>
   </g>
   <g id="line2d_13">
    <defs>
     <path d="M 0 1.5 
C 0.397805 1.5 0.77937 1.341951 1.06066 1.06066 
C 1.341951 0.77937 1.5 0.397805 1.5 0 
C 1.5 -0.397805 1.341951 -0.77937 1.06066 -1.06066 
C 0.77937 -1.341951 0.397805 -1.5 0 -1.5 
C -0.397805 -1.5 -0.77937 -1.341951 -1.06066 -1.06066 
C -1.341951 -0.77937 -1.5 -0.397805 -1.5 0 
C -1.5 0.397805 -1.341951 0.77937 -1.06066 1.06066 
C -0.77937 1.341951 -0.397805 1.5 0 1.5 
z
" id="m1e200d911e" style="stroke:#1f77b4;"/>
    </defs>
    <g clip-path="url(#p33a2fb6f68)">
     <use style="fill:#1f77b4;stroke:#1f77b4;" x="36.795227" xlink:href="#m1e200d911e" y="252.687186"/>
     <use style="fill:#1f77b4;stroke:#1f77b4;" x="43.42083" xlink:href="#m1e200d911e" y="264.716"/>
     <use style="fill:#1f77b4;stroke:#1f77b4;" x="50.046433" xlink:href="#m1e200d911e" y="237.232393"/>
     <use style="fill:#1f77b4;stroke:#1f77b4;" x="56.672036" xlink:href="#m1e200d911e" y="231.611127"/>
     <use style="fill:#1f77b4;stroke:#1f77b4;" x="63.297639" xlink:href="#m1e200d911e" y="237.599717"/>
     <use style="fill:#1f77b4;stroke:#1f77b4;" x="69.923242" xlink:href="#m1e200d911e" y="219.598513"/>
     <use style="fill:#1f77b4;stroke:#1f77b4;" x="76.548845" xlink:href="#m1e200d911e" y="218.94369"/>
     <use style="fill:#1f77b4;stroke:#1f77b4;" x="83.174448" xlink:href="#m1e200d911e" y="215.672847"/>
     <use style="fill:#1f77b4;stroke:#1f77b4;" x="89.800051" xlink:href="#m1e200d911e" y="193.51561"/>
     <use style="fill:#1f77b4;stroke:#1f77b4;" x="96.425654" xlink:href="#m1e200d911e" y="202.49707"/>
     <use style="fill:#1f77b4;stroke:#1f77b4;" x="103.051257" xlink:href="#m1e200d911e" y="195.742065"/>
     <use style="fill:#1f77b4;stroke:#1f77b4;" x="109.67686" xlink:href="#m1e200d911e" y="192.017025"/>
     <use style="fill:#1f77b4;stroke:#1f77b4;" x="116.302463" xlink:href="#m1e200d911e" y="187.164523"/>
     <use style="fill:#1f77b4;stroke:#1f77b4;" x="122.928066" xlink:href="#m1e200d911e" y="171.784979"/>
     <use style="fill:#1f77b4;stroke:#1f77b4;" x="129.553669" xlink:href="#m1e200d911e" y="164.16304"/>
     <use style="fill:#1f77b4;stroke:#1f77b4;" x="136.179272" xlink:href="#m1e200d911e" y="174.352775"/>
     <use style="fill:#1f77b4;stroke:#1f77b4;" x="142.804875" xlink:href="#m1e200d911e" y="169.851118"/>
     <use style="fill:#1f77b4;stroke:#1f77b4;" x="149.430478" xlink:href="#m1e200d911e" y="155.815337"/>
     <use style="fill:#1f77b4;stroke:#1f77b4;" x="156.056081" xlink:href="#m1e200d911e" y="166.502475"/>
     <use style="fill:#1f77b4;stroke:#1f77b4;" x="162.681684" xlink:href="#m1e200d911e" y="148.548589"/>
     <use style="fill:#1f77b4;stroke:#1f77b4;" x="169.307287" xlink:href="#m1e200d911e" y="146.678801"/>
     <use style="fill:#1f77b4;stroke:#1f77b4;" x="175.93289" xlink:href="#m1e200d911e" y="153.532414"/>
     <use style="fill:#1f77b4;stroke:#1f77b4;" x="182.558493" xlink:href="#m1e200d911e" y="148.645009"/>
     <use style="fill:#1f77b4;stroke:#1f77b4;" x="189.184096" xlink:href="#m1e200d911e" y="140.413928"/>
     <use style="fill:#1f77b4;stroke:#1f77b4;" x="195.809699" xlink:href="#m1e200d911e" y="135.450312"/>
     <use style="fill:#1f77b4;stroke:#1f77b4;" x="202.435301" xlink:href="#m1e200d911e" y="141.077122"/>
     <use style="fill:#1f77b4;stroke:#1f77b4;" x="209.060904" xlink:href="#m1e200d911e" y="148.032864"/>
     <use style="fill:#1f77b4;stroke:#1f77b4;" x="215.686507" xlink:href="#m1e200d911e" y="137.058541"/>
     <use style="fill:#1f77b4;stroke:#1f77b4;" x="222.31211" xlink:href="#m1e200d911e" y="143.595536"/>
     <use style="fill:#1f77b4;stroke:#1f77b4;" x="228.937713" xlink:href="#m1e200d911e" y="128.491525"/>
     <use style="fill:#1f77b4;stroke:#1f77b4;" x="235.563316" xlink:href="#m1e200d911e" y="135.033397"/>
     <use style="fill:#1f77b4;stroke:#1f77b4;" x="242.188919" xlink:href="#m1e200d911e" y="133.415681"/>
     <use style="fill:#1f77b4;stroke:#1f77b4;" x="248.814522" xlink:href="#m1e200d911e" y="122.150994"/>
     <use style="fill:#1f77b4;stroke:#1f77b4;" x="255.440125" xlink:href="#m1e200d911e" y="120.029579"/>
     <use style="fill:#1f77b4;stroke:#1f77b4;" x="262.065728" xlink:href="#m1e200d911e" y="115.159208"/>
     <use style="fill:#1f77b4;stroke:#1f77b4;" x="268.691331" xlink:href="#m1e200d911e" y="108.656742"/>
     <use style="fill:#1f77b4;stroke:#1f77b4;" x="275.316934" xlink:href="#m1e200d911e" y="111.072838"/>
     <use style="fill:#1f77b4;stroke:#1f77b4;" x="281.942537" xlink:href="#m1e200d911e" y="114.441374"/>
     <use style="fill:#1f77b4;stroke:#1f77b4;" x="288.56814" xlink:href="#m1e200d911e" y="104.814525"/>
     <use style="fill:#1f77b4;stroke:#1f77b4;" x="295.193743" xlink:href="#m1e200d911e" y="102.796465"/>
     <use style="fill:#1f77b4;stroke:#1f77b4;" x="301.819346" xlink:href="#m1e200d911e" y="93.897732"/>
     <use style="fill:#1f77b4;stroke:#1f77b4;" x="308.444949" xlink:href="#m1e200d911e" y="95.347579"/>
     <use style="fill:#1f77b4;stroke:#1f77b4;" x="315.070552" xlink:href="#m1e200d911e" y="90.060729"/>
     <use style="fill:#1f77b4;stroke:#1f77b4;" x="321.696155" xlink:href="#m1e200d911e" y="76.484982"/>
     <use style="fill:#1f77b4;stroke:#1f77b4;" x="328.321758" xlink:href="#m1e200d911e" y="74.028002"/>
     <use style="fill:#1f77b4;stroke:#1f77b4;" x="334.947361" xlink:href="#m1e200d911e" y="51.670314"/>
     <use style="fill:#1f77b4;stroke:#1f77b4;" x="341.572964" xlink:href="#m1e200d911e" y="54.778458"/>
     <use style="fill:#1f77b4;stroke:#1f77b4;" x="348.198567" xlink:href="#m1e200d911e" y="39.386516"/>
     <use style="fill:#1f77b4;stroke:#1f77b4;" x="354.82417" xlink:href="#m1e200d911e" y="28.452201"/>
     <use style="fill:#1f77b4;stroke:#1f77b4;" x="361.449773" xlink:href="#m1e200d911e" y="22.796"/>
    </g>
   </g>
   <g id="line2d_14">
    <path clip-path="url(#p33a2fb6f68)" d="M 36.795227 260.645016 
L 43.42083 252.940402 
L 50.046433 245.284355 
L 56.672036 237.724647 
L 63.297639 230.307466 
L 69.923242 223.076659 
L 76.548845 216.073015 
L 83.174448 209.333592 
L 89.800051 202.891109 
L 96.425654 196.77341 
L 103.051257 191.003005 
L 109.67686 185.596702 
L 116.302463 180.565332 
L 122.928066 175.913568 
L 129.553669 171.639849 
L 136.179272 167.736408 
L 142.804875 164.189398 
L 149.430478 160.979119 
L 156.056081 158.080342 
L 162.681684 155.462723 
L 169.307287 153.091302 
L 175.93289 150.927075 
L 182.558493 148.927637 
L 189.184096 147.047878 
L 195.809699 145.240721 
L 202.435301 143.457897 
L 209.060904 141.65074 
L 215.686507 139.770981 
L 222.31211 137.771543 
L 228.937713 135.607316 
L 235.563316 133.235895 
L 242.188919 130.618276 
L 248.814522 127.719499 
L 255.440125 124.50922 
L 262.065728 120.96221 
L 268.691331 117.058769 
L 275.316934 112.78505 
L 281.942537 108.133285 
L 288.56814 103.101915 
L 295.193743 97.695613 
L 301.819346 91.925208 
L 308.444949 85.807509 
L 315.070552 79.365026 
L 321.696155 72.625602 
L 328.321758 65.621958 
L 334.947361 58.391152 
L 341.572964 50.97397 
L 348.198567 43.414262 
L 354.82417 35.758216 
L 361.449773 28.053602 
" style="fill:none;stroke:#ff7f0e;stroke-dasharray:5.55,2.4;stroke-dashoffset:0;stroke-width:1.5;"/>
   </g>
   <g id="patch_3">
    <path d="M 20.5625 276.812 
L 20.5625 10.7 
" style="fill:none;stroke:#000000;stroke-linecap:square;stroke-linejoin:miter;stroke-width:0.8;"/>
   </g>
   <g id="patch_4">
    <path d="M 377.6825 276.812 
L 377.6825 10.7 
" style="fill:none;stroke:#000000;stroke-linecap:square;stroke-linejoin:miter;stroke-width:0.8;"/>
   </g>
   <g id="patch_5">
    <path d="M 20.5625 276.812 
L 377.6825 276.812 
" style="fill:none;stroke:#000000;stroke-linecap:square;stroke-linejoin:miter;stroke-width:0.8;"/>
   </g>
   <g id="patch_6">
    <path d="M 20.5625 10.7 
L 377.6825 10.7 
" style="fill:none;stroke:#000000;stroke-linecap:square;stroke-linejoin:miter;stroke-width:0.8;"/>
   </g>
   <g id="legend_1">
    <g id="patch_7">
     <path d="M 27.5625 48.05625 
L 82.0875 48.05625 
Q 84.0875 48.05625 84.0875 46.05625 
L 84.0875 17.7 
Q 84.0875 15.7 82.0875 15.7 
L 27.5625 15.7 
Q 25.5625 15.7 25.5625 17.7 
L 25.5625 46.05625 
Q 25.5625 48.05625 27.5625 48.05625 
z
" style="fill:#ffffff;opacity:0.8;stroke:#cccccc;stroke-linejoin:miter;"/>
    </g>
    <g id="line2d_15"/>
    <g id="line2d_16">
     <g>
      <use style="fill:#1f77b4;stroke:#1f77b4;" x="39.5625" xlink:href="#m1e200d911e" y="23.798437"/>
     </g>
    </g>
    <g id="text_13">
     <!-- data -->
     <defs>
      <path d="M 45.40625 46.390625 
L 45.40625 75.984375 
L 54.390625 75.984375 
L 54.390625 0 
L 45.40625 0 
L 45.40625 8.203125 
Q 42.578125 3.328125 38.25 0.953125 
Q 33.9375 -1.421875 27.875 -1.421875 
Q 17.96875 -1.421875 11.734375 6.484375 
Q 5.515625 14.40625 5.515625 27.296875 
Q 5.515625 40.1875 11.734375 48.09375 
Q 17.96875 56 27.875 56 
Q 33.9375 56 38.25 53.625 
Q 42.578125 51.265625 45.40625 46.390625 
z
M 14.796875 27.296875 
Q 14.796875 17.390625 18.875 11.75 
Q 22.953125 6.109375 30.078125 6.109375 
Q 37.203125 6.109375 41.296875 11.75 
Q 45.40625 17.390625 45.40625 27.296875 
Q 45.40625 37.203125 41.296875 42.84375 
Q 37.203125 48.484375 30.078125 48.484375 
Q 22.953125 48.484375 18.875 42.84375 
Q 14.796875 37.203125 14.796875 27.296875 
z
" id="DejaVuSans-100"/>
      <path d="M 34.28125 27.484375 
Q 23.390625 27.484375 19.1875 25 
Q 14.984375 22.515625 14.984375 16.5 
Q 14.984375 11.71875 18.140625 8.90625 
Q 21.296875 6.109375 26.703125 6.109375 
Q 34.1875 6.109375 38.703125 11.40625 
Q 43.21875 16.703125 43.21875 25.484375 
L 43.21875 27.484375 
z
M 52.203125 31.203125 
L 52.203125 0 
L 43.21875 0 
L 43.21875 8.296875 
Q 40.140625 3.328125 35.546875 0.953125 
Q 30.953125 -1.421875 24.3125 -1.421875 
Q 15.921875 -1.421875 10.953125 3.296875 
Q 6 8.015625 6 15.921875 
Q 6 25.140625 12.171875 29.828125 
Q 18.359375 34.515625 30.609375 34.515625 
L 43.21875 34.515625 
L 43.21875 35.40625 
Q 43.21875 41.609375 39.140625 45 
Q 35.0625 48.390625 27.6875 48.390625 
Q 23 48.390625 18.546875 47.265625 
Q 14.109375 46.140625 10.015625 43.890625 
L 10.015625 52.203125 
Q 14.9375 54.109375 19.578125 55.046875 
Q 24.21875 56 28.609375 56 
Q 40.484375 56 46.34375 49.84375 
Q 52.203125 43.703125 52.203125 31.203125 
z
" id="DejaVuSans-97"/>
      <path d="M 18.3125 70.21875 
L 18.3125 54.6875 
L 36.8125 54.6875 
L 36.8125 47.703125 
L 18.3125 47.703125 
L 18.3125 18.015625 
Q 18.3125 11.328125 20.140625 9.421875 
Q 21.96875 7.515625 27.59375 7.515625 
L 36.8125 7.515625 
L 36.8125 0 
L 27.59375 0 
Q 17.1875 0 13.234375 3.875 
Q 9.28125 7.765625 9.28125 18.015625 
L 9.28125 47.703125 
L 2.6875 47.703125 
L 2.6875 54.6875 
L 9.28125 54.6875 
L 9.28125 70.21875 
z
" id="DejaVuSans-116"/>
     </defs>
     <g transform="translate(57.5625 27.298437)scale(0.1 -0.1)">
      <use xlink:href="#DejaVuSans-100"/>
      <use x="63.476562" xlink:href="#DejaVuSans-97"/>
      <use x="124.755859" xlink:href="#DejaVuSans-116"/>
      <use x="163.964844" xlink:href="#DejaVuSans-97"/>
     </g>
    </g>
    <g id="line2d_17">
     <path d="M 29.5625 38.476562 
L 49.5625 38.476562 
" style="fill:none;stroke:#ff7f0e;stroke-dasharray:5.55,2.4;stroke-dashoffset:0;stroke-width:1.5;"/>
    </g>
    <g id="line2d_18"/>
    <g id="text_14">
     <!-- fit -->
     <defs>
      <path d="M 37.109375 75.984375 
L 37.109375 68.5 
L 28.515625 68.5 
Q 23.6875 68.5 21.796875 66.546875 
Q 19.921875 64.59375 19.921875 59.515625 
L 19.921875 54.6875 
L 34.71875 54.6875 
L 34.71875 47.703125 
L 19.921875 47.703125 
L 19.921875 0 
L 10.890625 0 
L 10.890625 47.703125 
L 2.296875 47.703125 
L 2.296875 54.6875 
L 10.890625 54.6875 
L 10.890625 58.5 
Q 10.890625 67.625 15.140625 71.796875 
Q 19.390625 75.984375 28.609375 75.984375 
z
" id="DejaVuSans-102"/>
      <path d="M 9.421875 54.6875 
L 18.40625 54.6875 
L 18.40625 0 
L 9.421875 0 
z
M 9.421875 75.984375 
L 18.40625 75.984375 
L 18.40625 64.59375 
L 9.421875 64.59375 
z
" id="DejaVuSans-105"/>
     </defs>
     <g transform="translate(57.5625 41.976562)scale(0.1 -0.1)">
      <use xlink:href="#DejaVuSans-102"/>
      <use x="35.205078" xlink:href="#DejaVuSans-105"/>
      <use x="62.988281" xlink:href="#DejaVuSans-116"/>
     </g>
    </g>
   </g>
  </g>
 </g>
 <defs>
  <clipPath id="p33a2fb6f68">
   <rect height="266.112" width="357.12" x="20.5625" y="10.7"/>
  </clipPath>
 </defs>
</svg>
